<?xml version="1.0" encoding="UTF-8" standalone="no"?>
<!-- Created with Inkscape (http://www.inkscape.org/) -->

<svg
   xmlns:dc="http://purl.org/dc/elements/1.1/"
   xmlns:cc="http://creativecommons.org/ns#"
   xmlns:rdf="http://www.w3.org/1999/02/22-rdf-syntax-ns#"
   xmlns:svg="http://www.w3.org/2000/svg"
   xmlns="http://www.w3.org/2000/svg"
   xmlns:sodipodi="http://sodipodi.sourceforge.net/DTD/sodipodi-0.dtd"
   xmlns:inkscape="http://www.inkscape.org/namespaces/inkscape"
   width="122.19093mm"
   height="76.581924mm"
   viewBox="0 0 432.95997 271.35327"
   id="svg2"
   version="1.1"
   inkscape:version="0.91 r13725"
   sodipodi:docname="rest.svg">
  <defs
     id="defs4" />
  <sodipodi:namedview
     id="base"
     pagecolor="#ffffff"
     bordercolor="#666666"
     borderopacity="1.0"
     inkscape:pageopacity="0.0"
     inkscape:pageshadow="2"
     inkscape:zoom="1.01"
     inkscape:cx="388.73094"
     inkscape:cy="-56.073948"
     inkscape:document-units="px"
     inkscape:current-layer="layer1"
     showgrid="false"
     showguides="true"
     inkscape:guide-bbox="true"
     fit-margin-top="0"
     fit-margin-left="0"
     fit-margin-right="0"
     fit-margin-bottom="0"
     inkscape:window-width="1600"
     inkscape:window-height="837"
     inkscape:window-x="-8"
     inkscape:window-y="-8"
     inkscape:window-maximized="1" />
  <metadata
     id="metadata7">
    <rdf:RDF>
      <cc:Work
         rdf:about="">
        <dc:format>image/svg+xml</dc:format>
        <dc:type
           rdf:resource="http://purl.org/dc/dcmitype/StillImage" />
        <dc:title></dc:title>
      </cc:Work>
    </rdf:RDF>
  </metadata>
  <g
     inkscape:label="Layer 1"
     inkscape:groupmode="layer"
     id="layer1"
     transform="translate(-27.645771,-462.68261)">
    <text
       xml:space="preserve"
       style="font-style:normal;font-weight:normal;font-size:25.90234375px;line-height:125%;font-family:Sans;letter-spacing:0px;word-spacing:0px;fill:#000000;fill-opacity:1;stroke:none;stroke-width:1px;stroke-linecap:butt;stroke-linejoin:miter;stroke-opacity:1"
       x="196.67337"
       y="579.63806"
       id="text4136"
       sodipodi:linespacing="125%"><tspan
         sodipodi:role="line"
         x="196.67337"
         y="579.63806"
         id="tspan4148"
         style="font-style:normal;font-variant:normal;font-weight:normal;font-stretch:normal;font-size:9.71337891px;font-family:Consolas;-inkscape-font-specification:Consolas">// GET: api/TargetsService</tspan><tspan
         sodipodi:role="line"
         x="196.67337"
         y="591.77979"
         id="tspan4160"
         style="font-style:normal;font-variant:normal;font-weight:normal;font-stretch:normal;font-size:9.71337891px;font-family:Consolas;-inkscape-font-specification:Consolas">// GET: api/TargetsService/5</tspan><tspan
         sodipodi:role="line"
         x="196.67337"
         y="603.92151"
         id="tspan4176"
         style="font-style:normal;font-variant:normal;font-weight:normal;font-stretch:normal;font-size:9.71337891px;font-family:Consolas;-inkscape-font-specification:Consolas">// POST: api/TargetsService</tspan><tspan
         sodipodi:role="line"
         x="196.67337"
         y="616.06323"
         id="tspan4178"
         style="font-style:normal;font-variant:normal;font-weight:normal;font-stretch:normal;font-size:9.71337891px;font-family:Consolas;-inkscape-font-specification:Consolas">// DELETE: api/TargetsService/5</tspan></text>
    <g
       id="g4320"
       transform="translate(10.372677,657.42024)" />
    <g
       id="g4354"
       transform="matrix(1.577222,0,0,1.577222,36.720675,551.72834)">
      <g
         id="g4332">
        <path
           id="path4334"
           d="M 32,4 16,4 c -2.2,0 -4,1.8 -4,4 l 0,32 c 0,2.2 1.8,4 4,4 l 16,0 c 2.2,0 4,-1.8 4,-4 L 36,8 C 36,5.8 34.2,4 32,4 Z m -16,2.1 16,0 c 1,0 1.9,0.8 1.9,1.9 l 0,3.1 -19.8,0 0,-3.1 C 14.1,7 15,6.1 16,6.1 Z m 16,35.8 -16,0 c -1,0 -1.9,-0.8 -1.9,-1.9 l 0,-28.1 19.7,0 0,28.1 c 0.1,1 -0.8,1.9 -1.8,1.9 z"
           inkscape:connector-curvature="0" />
        <circle
           id="circle4336"
           r="2"
           cy="37.700001"
           cx="24" />
        <circle
           id="circle4338"
           r="1"
           cy="8.6000004"
           cx="17" />
        <circle
           id="circle4340"
           r="1"
           cy="8.6000004"
           cx="19.700001" />
        <circle
           id="circle4342"
           r="1"
           cy="8.6000004"
           cx="22.5" />
      </g>
    </g>
    <g
       id="g4380"
       transform="matrix(0.64755861,0,0,0.64755861,42.196073,455.55948)">
      <g
         id="g4366"
         transform="translate(0,-952.36218)">
        <path
           id="path4368"
           overflow="visible"
           display="inline"
           visibility="visible"
           d="m 8.9997062,963.36216 c -3.8259,0 -6.9997,3.17375 -6.9997,6.99967 l 0,55.99737 c 0,3.8259 3.1738,6.9997 6.9997,6.9997 l 59.2789998,0 c -2.5474,-1.4074 -4.6672,-3.4844 -6.1248,-5.9998 l -53.1541998,0 c -0.6058,0 -0.9999,-0.394 -0.9999,-0.9999 l 0,-40.99812 75.9970998,0 0,20.15532 c 2.5151,1.4574 4.5924,3.5777 5.9997,6.1247 l 0,-41.27927 c 0,-3.82592 -3.1737,-6.99967 -6.9997,-6.99967 l -73.9971998,0 z m 0,5.99972 73.9971998,0 c 0.6059,0 1,0.39408 1,0.99995 l 0,8.99955 -75.9970998,0 0,-8.99955 c 0,-0.60587 0.3941,-0.99995 0.9999,-0.99995 z m 3.9998998,1.9999 c -1.6569,0 -2.9998998,1.34304 -2.9998998,2.99986 0,1.65684 1.3429998,2.99984 2.9998998,2.99984 1.6568,0 2.9999,-1.343 2.9999,-2.99984 0,-1.65682 -1.3431,-2.99986 -2.9999,-2.99986 z m 7.9997,0 c -1.6569,0 -2.9999,1.34304 -2.9999,2.99986 0,1.65684 1.343,2.99984 2.9999,2.99984 1.6568,0 2.9999,-1.343 2.9999,-2.99984 0,-1.65682 -1.3431,-2.99986 -2.9999,-2.99986 z m 7.9997,0 c -1.6569,0 -2.9999,1.34304 -2.9999,2.99986 0,1.65684 1.343,2.99984 2.9999,2.99984 1.6568,0 2.9999,-1.343 2.9999,-2.99984 0,-1.65682 -1.3431,-2.99986 -2.9999,-2.99986 z m 46.9982,33.99842 c -7.6961,0 -13.9995,6.3033 -13.9995,13.9993 0,7.6961 6.3034,13.9994 13.9995,13.9994 2.7667,0 5.3525,-0.8176 7.5309,-2.2187 l 9.3434,9.3433 c 1.1716,1.1716 3.0784,1.1716 4.2499,0 1.1715,-1.1715 1.1714,-3.0782 0,-4.2498 l -9.3435,-9.3433 c 1.4012,-2.1785 2.2187,-4.7642 2.2187,-7.5309 0,-7.696 -6.3032,-13.9993 -13.9994,-13.9993 z m 0,5.9997 c 4.4536,0 7.9997,3.546 7.9997,7.9996 0,4.4536 -3.5461,7.9996 -7.9997,7.9996 -4.4537,0 -7.9997,-3.546 -7.9997,-7.9996 0,-4.4536 3.546,-7.9996 7.9997,-7.9996 z"
           style="color:#000000;display:inline;overflow:visible;visibility:visible;fill:#000000;stroke:none;marker:none;enable-background:accumulate"
           inkscape:connector-curvature="0" />
      </g>
    </g>
    <g
       id="g4400"
       transform="matrix(0.64755861,0,0,0.64755861,399.08704,562.21147)">
      <path
         id="path4388"
         d="m 93.071,34.417 -86.142,0 c -1.065,0 -1.929,0.896 -1.929,2 l 0,24 c 0,1.104 0.863,2 1.929,2 l 86.143,0 c 1.065,0 1.929,-0.896 1.929,-2 l 0,-24 c -0.001,-1.104 -0.864,-2 -1.93,-2 z M 20.44,52.75 c -2.393,0 -4.333,-1.939 -4.333,-4.333 0,-2.394 1.94,-4.333 4.333,-4.333 2.394,0 4.334,1.939 4.334,4.333 0,2.394 -1.94,4.333 -4.334,4.333 z m 16.333,0 c -2.393,0 -4.333,-1.939 -4.333,-4.333 0,-2.394 1.94,-4.333 4.333,-4.333 2.394,0 4.334,1.939 4.334,4.333 0,2.394 -1.94,4.333 -4.334,4.333 z m 49.5,-1.083 c 0,0.553 -0.448,1 -1,1 l -19.334,0 c -0.552,0 -1,-0.447 -1,-1 l 0,-6.5 c 0,-0.553 0.448,-1 1,-1 l 19.334,0 c 0.552,0 1,0.447 1,1 l 0,6.5 z m 6.798,-48.184 -86.142,0 C 5.863,3.483 5,4.379 5,5.483 l 0,24 c 0,1.104 0.863,2 1.929,2 l 86.143,0 c 1.065,0 1.929,-0.896 1.929,-2 l 0,-24 c -0.001,-1.104 -0.864,-2 -1.93,-2 z M 20.44,21.816 c -2.393,0 -4.333,-1.939 -4.333,-4.333 0,-2.394 1.94,-4.333 4.333,-4.333 2.394,0 4.334,1.939 4.334,4.333 0,2.394 -1.94,4.333 -4.334,4.333 z m 16.333,0 c -2.393,0 -4.333,-1.939 -4.333,-4.333 0,-2.394 1.94,-4.333 4.333,-4.333 2.394,0 4.334,1.939 4.334,4.333 0,2.394 -1.94,4.333 -4.334,4.333 z m 49.5,-1.083 c 0,0.553 -0.448,1 -1,1 l -19.334,0 c -0.552,0 -1,-0.447 -1,-1 l 0,-6.5 c 0,-0.553 0.448,-1 1,-1 l 19.334,0 c 0.552,0 1,0.447 1,1 l 0,6.5 z m 6.798,44.618 -86.142,0 c -1.065,0 -1.929,0.896 -1.929,2 l 0,24 c 0,1.104 0.863,2 1.929,2 l 11.154,0 0,2.166 c 0,0.553 0.447,1 1,1 l 15,0 c 0.553,0 1,-0.447 1,-1 l 0,-2.166 29.833,0 0,2.166 c 0,0.553 0.447,1 1,1 l 15,0 c 0.553,0 1,-0.447 1,-1 l 0,-2.166 11.155,0 c 1.065,0 1.929,-0.896 1.929,-2 l 0,-24 c 0,-1.105 -0.863,-2 -1.929,-2 z M 20.44,83.684 c -2.393,0 -4.333,-1.939 -4.333,-4.333 0,-2.394 1.94,-4.333 4.333,-4.333 2.394,0 4.334,1.939 4.334,4.333 0,2.394 -1.94,4.333 -4.334,4.333 z m 16.333,0 c -2.393,0 -4.333,-1.939 -4.333,-4.333 0,-2.394 1.94,-4.333 4.333,-4.333 2.394,0 4.334,1.939 4.334,4.333 0,2.394 -1.94,4.333 -4.334,4.333 z m 49.5,-1.083 c 0,0.553 -0.448,1 -1,1 l -19.334,0 c -0.552,0 -1,-0.447 -1,-1 l 0,-6.5 c 0,-0.553 0.448,-1 1,-1 l 19.334,0 c 0.552,0 1,0.447 1,1 l 0,6.5 z"
         inkscape:connector-curvature="0" />
    </g>
    <text
       xml:space="preserve"
       style="font-style:normal;font-weight:normal;font-size:25.90234375px;line-height:125%;font-family:Sans;text-align:center;letter-spacing:0px;word-spacing:0px;text-anchor:middle;fill:#000000;fill-opacity:1;stroke:none;stroke-width:1px;stroke-linecap:butt;stroke-linejoin:miter;stroke-opacity:1"
       x="74.315521"
       y="528.35944"
       id="text4405"
       sodipodi:linespacing="125%"><tspan
         sodipodi:role="line"
         id="tspan4407"
         x="74.315521"
         y="528.35944"
         style="font-size:9.71337891px;text-align:center;text-anchor:middle">Przeglądarka WWW</tspan><tspan
         sodipodi:role="line"
         x="74.315521"
         y="540.50116"
         style="font-size:9.71337891px;text-align:center;text-anchor:middle"
         id="tspan4452">(AngularJS)</tspan></text>
    <text
       sodipodi:linespacing="125%"
       id="text4409"
       y="639.36761"
       x="31.994968"
       style="font-style:normal;font-weight:normal;font-size:25.90234375px;line-height:125%;font-family:Sans;letter-spacing:0px;word-spacing:0px;fill:#000000;fill-opacity:1;stroke:none;stroke-width:1px;stroke-linecap:butt;stroke-linejoin:miter;stroke-opacity:1"
       xml:space="preserve"><tspan
         style="font-size:9.71337891px"
         y="639.36761"
         x="31.994968"
         id="tspan4411"
         sodipodi:role="line">Aplikacja mobilna</tspan></text>
    <path
       style="fill:none;fill-rule:evenodd;stroke:#000000;stroke-width:0.94240391;stroke-linecap:butt;stroke-linejoin:miter;stroke-miterlimit:4;stroke-dasharray:3.76961569, 0.94240392;stroke-dashoffset:0;stroke-opacity:1"
       d="m 124.38105,488.48343 37.43776,0 0,51.59185 0,54.62666"
       id="path4419"
       inkscape:connector-curvature="0"
       sodipodi:nodetypes="cccc" />
    <path
       style="fill:none;fill-rule:evenodd;stroke:#000000;stroke-width:1.29511726;stroke-linecap:butt;stroke-linejoin:miter;stroke-miterlimit:4;stroke-dasharray:5.18046889, 1.29511722;stroke-dashoffset:0;stroke-opacity:1"
       d="m 123.73506,594.39756 69.37654,0 0,0"
       id="path4421"
       inkscape:connector-curvature="0"
       sodipodi:nodetypes="ccc" />
    <g
       transform="matrix(0,-0.64755861,0.64755861,0,56.343259,193.51779)"
       style="font-style:normal;font-weight:normal;font-size:40px;line-height:125%;font-family:Sans;letter-spacing:0px;word-spacing:0px;fill:#000000;fill-opacity:1;stroke:none;stroke-width:1px;stroke-linecap:butt;stroke-linejoin:miter;stroke-opacity:1"
       id="text4423">
      <path
         d="m -668.99384,470.53848 -2.92968,0 c -2.33073,0 -4.22527,-0.65104 -5.6836,-1.95313 -1.44531,-1.28906 -2.16797,-3.15755 -2.16797,-5.60547 l 0,-104.27425 c 0,-2.20052 -0.54036,-3.91927 -1.62109,-5.15625 -1.08073,-1.25 -2.73437,-1.875 -4.96094,-1.875 l -0.99609,0 0,-3.04688 0.99609,0 c 2.22657,0 3.88021,-0.61849 4.96094,-1.85547 1.08073,-1.25 1.62109,-2.97526 1.62109,-5.17578 l 0,-116.64266 c 0,-2.44792 0.72266,-4.31641 2.16797,-5.60547 1.45833,-1.30209 3.35287,-1.95313 5.6836,-1.95313 l 2.92968,0 0,2.69531 -2.22656,0 c -1.77083,0 -3.0599,0.41016 -3.86719,1.23047 -0.79427,0.82031 -1.1914,2.14193 -1.1914,3.96485 l 0,117.15048 c 0,1.80989 -0.5013,3.33333 -1.50391,4.57031 -1.0026,1.22396 -2.39583,2.19401 -4.17969,2.91015 l 0,0.46875 c 1.78386,0.71615 3.17709,1.69271 4.17969,2.92969 1.00261,1.22396 1.50391,2.74089 1.50391,4.55078 l 0,104.78207 c 0,1.82292 0.39713,3.14454 1.1914,3.96485 0.80729,0.82031 2.09636,1.23046 3.86719,1.23046 l 2.22656,0 z"
         id="path4428"
         inkscape:connector-curvature="0"
         sodipodi:nodetypes="cscsscsccscsscsccscssccccsscscc" />
    </g>
    <path
       inkscape:connector-curvature="0"
       id="path4432"
       d="m 390.73111,594.39756 -31.41621,0 0,0"
       style="fill:none;fill-rule:evenodd;stroke:#000000;stroke-width:1.29511726;stroke-linecap:butt;stroke-linejoin:miter;stroke-miterlimit:4;stroke-dasharray:5.18046889, 1.29511722;stroke-dashoffset:0;stroke-opacity:1" />
    <text
       xml:space="preserve"
       style="font-style:normal;font-weight:normal;font-size:25.90234375px;line-height:125%;font-family:Sans;letter-spacing:0px;word-spacing:0px;fill:#000000;fill-opacity:1;stroke:none;stroke-width:1px;stroke-linecap:butt;stroke-linejoin:miter;stroke-opacity:1"
       x="412.09607"
       y="640.69299"
       id="text4434"
       sodipodi:linespacing="125%"><tspan
         sodipodi:role="line"
         id="tspan4436"
         x="412.09607"
         y="640.69299"
         style="font-size:9.71337891px">Serwer</tspan></text>
    <g
       transform="matrix(0.38173902,0,0,0.38173902,261.72647,600.30766)"
       inkscape:label="Layer 1"
       id="layer1-5" />
    <text
       xml:space="preserve"
       style="font-style:normal;font-weight:normal;font-size:25.90234375px;line-height:125%;font-family:Sans;letter-spacing:0px;word-spacing:0px;fill:#000000;fill-opacity:1;stroke:none;stroke-width:1px;stroke-linecap:butt;stroke-linejoin:miter;stroke-opacity:1"
       x="259.61935"
       y="650.82916"
       id="text4448"
       sodipodi:linespacing="125%"><tspan
         sodipodi:role="line"
         id="tspan4450"
         x="259.61935"
         y="650.82916"
         style="font-size:9.71337891px">REST API</tspan></text>
    <g
       id="g4478"
       transform="matrix(0.64755861,0,0,0.64755861,-78.548061,176.80121)">
      <g
         transform="translate(186.31055,756.32401)"
         id="g4470">
        <path
           inkscape:connector-curvature="0"
           d="m 52.2,64.4 c 0.1,-0.6 0.1,-1.3 0.1,-1.9 0,-0.7 0,-1.3 -0.1,-1.9 l 3.9,-2.8 c 0.4,-0.3 0.6,-0.8 0.3,-1.3 l -3.8,-6.4 c -0.3,-0.4 -0.7,-0.6 -1.1,-0.4 l -4.3,2.1 c -1,-0.8 -2.1,-1.4 -3.3,-1.9 l -0.4,-4.7 c 0,-0.4 -0.4,-0.8 -0.8,-0.8 l -7.4,0 c -0.4,0 -0.8,0.4 -0.8,0.8 l -0.6,4.9 c -1.3,0.4 -2.2,1.1 -3.3,1.9 l -4.3,-1.9 c -0.4,-0.1 -1,0 -1.1,0.4 l -3.8,6.4 c -0.3,0.4 -0.1,1 0.3,1.3 l 3.9,2.8 c -0.1,0.6 -0.1,1.3 -0.1,1.9 0,0.7 0,1.3 0.1,1.9 l -3.9,2.8 c -0.4,0.3 -0.6,0.8 -0.3,1.3 l 3.8,6.4 c 0.3,0.4 0.7,0.6 1.1,0.4 l 4.3,-1.9 c 1,0.8 2.1,1.4 3.3,1.9 l 0.4,4.7 c 0,0.4 0.4,0.8 0.8,0.8 l 7.4,0 c 0.4,0 0.8,-0.4 0.8,-0.8 l 0.4,-4.7 C 45,75.3 45.9,74.6 47,73.8 l 4.3,1.9 c 0.4,0.1 1,0 1.1,-0.4 l 3.8,-6.4 c 0.3,-0.4 0.1,-1 -0.3,-1.3 l -3.7,-3.2 z m -13.4,5 c -3.9,0 -6.9,-3.1 -6.9,-6.9 0,-3.9 3.1,-6.9 6.9,-6.9 3.9,0 6.9,3.1 6.9,6.9 0.1,3.8 -3,6.9 -6.9,6.9 z"
           id="path4456" />
        <path
           inkscape:connector-curvature="0"
           d="M 74.8,37.8 C 75,37.1 75,36.6 75,36 c 0,-0.6 0,-1.1 -0.1,-1.8 l 3.5,-2.5 c 0.4,-0.3 0.4,-0.7 0.3,-1.1 l -3.5,-6 C 74.9,24.2 74.5,24 74.1,24.3 l -4,1.8 C 69.1,25.4 68.2,24.8 67,24.3 L 66.5,20 c 0.1,-0.4 -0.1,-0.7 -0.6,-0.7 l -6.8,0 c -0.4,0 -0.8,0.3 -0.8,0.7 l -0.4,4.3 c -1.1,0.4 -2.1,1 -3.1,1.8 l -4,-1.8 c -0.4,-0.1 -0.8,0 -1.1,0.3 l -3.5,6 c -0.3,0.4 -0.1,0.8 0.3,1.1 l 3.5,2.5 c 0,0.7 0,1.3 0,1.8 0,0.5 0,1.1 0.1,1.8 l -3.5,2.5 c -0.4,0.3 -0.4,0.7 -0.3,1.1 l 3.5,6 c 0.3,0.4 0.7,0.6 1.1,0.3 l 4,-1.8 c 1,0.7 1.9,1.3 3.1,1.8 l 0.4,4.3 c 0,0.4 0.4,0.7 0.8,0.7 l 6.8,0 c 0.4,0 0.8,-0.3 0.8,-0.7 l 0.4,-4.3 c 1.1,-0.4 2.1,-1 3.1,-1.8 l 4,1.8 c 0.4,0.1 0.8,0 1.1,-0.3 l 3.5,-6 C 79.2,41 79,40.6 78.6,40.3 L 74.8,37.8 Z M 62.4,43 c -3.9,0 -6.9,-3.1 -6.9,-6.9 0,-3.8 3.1,-6.9 6.9,-6.9 3.9,0 6.9,3.1 6.9,6.9 0,3.8 -3,6.9 -6.9,6.9 z"
           id="path4458" />
      </g>
    </g>
    <path
       inkscape:connector-curvature="0"
       id="path4476"
       d="m 161.81881,594.54906 0,51.59185 0,54.62667 -37.43776,0"
       style="fill:none;fill-rule:evenodd;stroke:#000000;stroke-width:0.94240391;stroke-linecap:butt;stroke-linejoin:miter;stroke-miterlimit:4;stroke-dasharray:3.76961569, 0.94240392;stroke-dashoffset:0;stroke-opacity:1"
       sodipodi:nodetypes="cccc" />
    <text
       xml:space="preserve"
       style="font-style:normal;font-weight:normal;font-size:25.90234375px;line-height:125%;font-family:Sans;letter-spacing:0px;word-spacing:0px;fill:#000000;fill-opacity:1;stroke:none;stroke-width:1px;stroke-linecap:butt;stroke-linejoin:miter;stroke-opacity:1"
       x="44.494778"
       y="733.88885"
       id="text4485"
       sodipodi:linespacing="125%"><tspan
         sodipodi:role="line"
         id="tspan4487"
         x="44.494778"
         y="733.88885"
         style="font-size:9.71337891px">Web Service</tspan></text>
  </g>
</svg>
